<svg width="239" height="45" viewBox="0 0 239 45" fill="none" xmlns="http://www.w3.org/2000/svg">
<g clip-path="url(#clip0_19_77)">
<path d="M140.422 35.988C140.432 35.9491 140.43 35.9081 140.416 35.8701C140.403 35.8322 140.379 35.7991 140.347 35.7749C140.251 34.9467 140.452 34.1484 140.595 33.3441L141.445 29.7999L142.87 23.7979C143.504 21.8283 143.991 19.8141 144.327 17.7719C144.743 16.5895 144.926 15.2511 146.374 14.7709L152.359 14.6809C153.637 14.6989 154.915 14.7589 156.193 14.7169C157.025 14.6899 157.621 14.945 158.007 15.6802L158.042 16.2564C157.716 16.7066 157.743 17.2288 157.716 17.7569C156.911 20.1217 156.367 20.4908 153.826 20.4158C153.335 20.4158 152.844 20.4428 152.353 20.4608C151.536 20.3948 150.71 20.2118 149.905 20.5839C149.577 21.1492 149.417 21.7969 149.445 22.4505C150.409 22.6136 151.392 22.6339 152.362 22.5105C152.961 22.5375 153.533 22.5975 154.116 22.5825C155.014 22.5615 155.771 22.7626 156.043 23.7619C155.924 24.2421 155.819 24.7283 155.684 25.2054C154.816 28.2994 154.58 28.4285 151.336 28.3835C150.223 28.3685 149.067 28.0834 147.966 28.5605C147.49 29.2718 147.404 30.025 147.419 30.9313C149.064 31.0542 150.716 31.0452 152.359 30.9043C154.341 31.2044 154.652 31.6396 154.293 33.5602C154.155 34.2924 154.047 35.0307 153.928 35.7689C153.745 36.0346 153.51 36.2606 153.238 36.4334C152.966 36.6061 152.662 36.7221 152.344 36.7743L146.377 36.8073C145.15 36.7833 143.923 36.7323 142.696 36.7473C141.852 36.7503 141.023 36.7173 140.422 35.988Z" fill="white"/>
<path d="M136.986 35.7119C136.358 36.6452 135.376 36.6722 134.406 36.7293C133.263 36.4082 131.794 37.2274 130.977 35.7509C131.111 33.6952 131.955 31.7896 132.24 29.7639L133.736 23.7619C134.176 22.0274 134.574 20.2778 135.068 18.5582C135.998 15.3171 135.391 14.6059 139.784 14.7709C139.985 14.765 140.185 14.7439 140.383 14.7079C142.25 15.1581 141.556 16.5685 141.511 17.7359C140.395 21.7123 139.389 25.7126 138.575 29.7639L136.986 35.7119Z" fill="white"/>
<path d="M7.32908 5.80994C7.87378 5.51667 8.35334 5.11541 8.73862 4.63054C12.4046 1.98366 16.5165 0.522174 20.9846 0H24.2765H24.5758L25.1743 0.042014C27.3739 0.594198 29.6065 1.01734 31.6983 1.95365C36.3429 4.03034 39.8084 7.38246 42.3582 11.7459L44.3722 16.8296C44.3413 16.9889 44.3479 17.1533 44.3915 17.3096C44.4352 17.466 44.5147 17.6099 44.6236 17.7299C44.8975 19.7188 45.0345 21.7242 45.0336 23.7319C44.6965 28.0398 43.2283 32.1814 40.7781 35.7359L38.2433 38.7129L34.3528 41.7139L32.647 42.6502C30.6963 43.4763 28.6866 44.1544 26.6347 44.6789C24.6626 44.859 22.6904 45.069 20.7033 44.979C18.6652 44.6881 16.6529 44.2376 14.685 43.6315L10.217 41.4408C9.78653 40.9723 9.27177 40.5895 8.69971 40.3124C5.3001 37.5389 2.70841 33.8982 1.19711 29.7729C0.649066 27.8051 0.248923 25.7988 4.58636e-05 23.7709C-0.0176775 21.7689 0.150639 19.7696 0.502813 17.7989C0.975654 15.6982 1.82258 13.7206 2.69344 11.7579C2.72751 11.7451 2.75514 11.7193 2.77028 11.6861C2.78542 11.6529 2.78684 11.6151 2.77424 11.5809C4.10052 9.51237 5.62611 7.57946 7.32908 5.80994ZM2.0171 23.7469C1.97514 24.8669 2.13533 25.9852 2.48994 27.048C2.48994 27.5222 2.59468 27.9483 3.45059 28.1314L5.63224 23.7619L8.67877 17.7599C8.69531 17.7563 8.7108 17.7489 8.72405 17.7383C8.73729 17.7277 8.74794 17.7142 8.75517 17.6988C8.76239 17.6835 8.76601 17.6667 8.76573 17.6497C8.76546 17.6327 8.7613 17.616 8.75358 17.6009C9.88388 15.7318 10.8838 13.7865 11.7462 11.7789C12.894 9.8417 13.9253 7.83747 14.8347 5.77693C15.4406 5.05428 15.8003 4.15627 15.8612 3.21407C13.7902 3.5892 12.2101 4.55252 10.7198 5.72291C9.94885 6.09889 9.26798 6.63733 8.72366 7.30143C7.20305 8.50337 5.95276 10.0138 5.05465 11.7339C3.79602 13.5408 2.93037 15.5928 2.51388 17.7569L2.45403 18.057C1.99017 19.9386 1.69988 21.8173 2.0171 23.7469ZM16.1604 35.4118C15.6226 35.5004 15.116 35.7245 14.688 36.063C13.0032 36.6872 11.3333 37.3474 9.8459 38.3168C10.1841 39.2981 10.7437 39.2681 11.3422 39.043C12.5902 38.5809 13.8351 38.1097 15.0831 37.6415L19.7516 36.021C20.0878 36.0239 20.4138 35.9057 20.6704 35.6879L26.6557 33.5872L32.641 31.4865L36.8128 30.016L39.0274 29.2327C40.1958 28.9544 41.3292 28.5447 42.4061 28.0113C42.6395 26.5108 43.3547 25.0644 42.7801 23.3298C41.2479 23.954 39.8773 24.4702 38.6144 25.2354C36.5598 25.9969 34.56 26.8993 32.629 27.9363C31.3939 28.3511 30.1981 28.8753 29.0558 29.5028C28.2043 29.7727 27.3937 30.1584 26.6467 30.6492C24.5899 31.4052 22.5897 32.3078 20.6614 33.3501C19.099 33.8919 17.5918 34.5823 16.1604 35.4118ZM16.4776 42.074C17.7945 42.6656 19.2246 42.9606 20.6674 42.9383C24.844 43.4442 29.0687 42.5233 32.659 40.3244C35.4428 38.9335 37.7336 36.719 39.2219 33.9803C36.8705 34.1493 34.554 34.6452 32.3388 35.4538C30.4026 35.7747 28.4952 36.2504 26.6347 36.8763C24.6096 37.2471 22.6103 37.7483 20.6494 38.3768C18.6208 38.7476 16.6208 39.261 14.6641 39.9133C14.1344 39.9553 13.5359 39.8773 13.3862 40.6305C13.6197 41.2307 14.1523 41.3478 14.688 41.4528C15.2169 41.8246 15.8388 42.0408 16.4836 42.077L16.4776 42.074ZM8.67877 32.1107C7.66642 32.8174 6.76815 33.6757 6.0153 34.6556C6.38938 35.3878 6.7904 36 7.49666 36.4051C7.9748 36.2637 8.40529 35.9939 8.74161 35.6249C10.8064 34.4004 12.8044 33.0661 14.7269 31.6275C15.7231 31.1559 16.6504 30.5501 17.4832 29.8269C18.6294 29.2389 19.7064 28.5242 20.6943 27.6962C22.5803 26.6377 24.3813 25.4337 26.0811 24.095L26.6617 23.7499L32.656 19.7766C33.7252 19.2205 34.729 18.5461 35.6486 17.7659C37.6249 16.6633 39.5138 15.4102 41.2988 14.0177C40.6673 12.5472 40.006 11.2868 38.9825 10.2424C38.1778 8.89849 37.0963 7.74234 35.8102 6.85128L26.6826 15.4131C25.7716 16.0897 24.9403 16.8679 24.2047 17.7329C22.9264 18.7179 21.7368 19.8135 20.6494 21.007C19.5666 21.8188 18.5698 22.7399 17.6747 23.7559L14.703 26.4988C13.6018 27.3551 12.5864 28.3169 11.6714 29.3708C10.5745 30.1686 9.57066 31.0877 8.67877 32.1107Z" fill="white"/>
<path d="M238.997 17.7719C238.832 18.5012 238.635 19.2244 238.509 19.9597C238.177 21.9283 237.441 23.5339 235.166 23.6989L234.269 27.5252C234.897 28.1614 235.499 28.8216 235.585 29.7669C234.987 31.8106 235.112 34.1154 233.392 35.7419C232.4 36.2887 231.291 36.5854 230.16 36.6062C229.522 36.5462 228.885 36.4742 228.244 36.4292C226.218 36.2911 225.081 35.2558 224.752 33.2421C224.621 32.4053 224.616 31.5535 224.737 30.7153C225.084 28.1464 225.961 25.7006 226.461 23.1857C225.282 20.977 226.203 17.2438 228.49 15.083C228.681 13.9157 228.969 12.7063 229.845 11.7489L230.178 11.4818C232.135 10.7436 234.14 10.7706 236.163 11.1007L237.061 11.7519C237.71 12.8233 237.752 13.9667 237.36 15.2301C238.428 15.7373 239.036 16.5595 238.997 17.7719ZM233.511 29.7759C233.341 29.1007 232.425 29.6409 232.174 28.7076C232.174 27.1861 233.009 25.5385 233.128 23.7679C233.464 23.2218 233.469 22.4985 234.026 22.0664C236.351 21.4392 237.112 20.2148 236.971 17.3008C236.871 17.1902 236.74 17.1128 236.595 17.079C236.45 17.0452 236.298 17.0566 236.16 17.1117C235.828 16.9317 235.328 17.2768 235.053 16.6736C235.136 15.5122 235.95 14.3238 235.54 12.9793C232.198 12.2561 229.929 12.9523 230.073 16.6526C229.567 17.2258 228.98 17.0457 228.55 17.7779C228.13 18.9701 227.842 20.2049 227.691 21.4602L228.487 22.3605L228.358 23.7499C227.716 25.7118 227.215 27.7177 226.862 29.7519C225.713 33.3891 226.601 34.6796 230.154 34.5535C231.997 34.6346 232.649 34.2144 233.033 32.5369C233.251 31.6366 233.592 30.7393 233.511 29.7759Z" fill="white"/>
<path d="M218.129 36.162C216.197 36.6741 214.208 36.9442 212.21 36.9663C207.742 36.4802 204.252 34.8116 203.573 29.7639C203.631 27.7371 203.919 25.7234 204.432 23.7619L206.257 20.2297L208.43 17.8079C209.608 16.9373 210.871 16.1892 212.201 15.5752C214.146 15.005 216.112 14.6509 218.15 14.909C219.963 15.2908 221.585 16.2974 222.735 17.7539C224.064 19.8996 224.177 22.2554 223.932 24.6772C223.57 25.9887 223.528 27.4321 222.361 28.4345L222.57 29.7549C221.942 31.7416 221.972 34.0463 219.952 35.3788L218.129 36.162ZM218.222 27.4591C221.173 27.7322 221.885 27.045 222.043 23.7649C222.471 20.2718 221.113 17.5919 218.452 16.9466C216.663 16.454 214.758 16.6168 213.077 17.4058L212.198 17.7509C209.42 18.9063 207.709 21.052 206.586 23.7529C206.148 24.5771 205.891 25.4858 205.832 26.4178C204.527 31.5585 206.993 34.8446 212.192 34.8866C214.272 35.1027 216.289 34.9106 218.177 33.9713C219.838 33.2271 220.739 31.2884 220.38 29.1907C219.539 28.9566 218.847 29.3408 218.168 29.7579C216.206 30.1659 214.191 30.243 212.204 29.986L211.584 29.6499C211.084 29.1577 210.342 28.7736 210.767 27.8793C211.183 27.4652 211.722 27.6872 212.171 27.5282C214.187 27.654 216.209 27.6319 218.222 27.4621V27.4591Z" fill="white"/>
<path d="M201.406 29.7579L200.209 32.0897C199.202 33.392 198.003 34.5334 196.654 35.4748L194.26 36.3361L188.274 36.6362C186.276 36.3907 184.256 36.3696 182.253 36.5732C181.239 36.5042 180.278 36.3121 179.602 35.4448C178.65 33.5092 179.557 31.6516 179.841 29.7669L181.337 23.7649L184.312 11.7609C184.749 9.5702 185.967 8.22575 188.283 8.0697H194.254C196.271 8.10872 198.285 8.15073 200.221 8.82295C201.571 9.53419 202.756 10.4315 203.582 11.7489C204.423 13.7146 204.309 15.7313 203.917 17.7509C203.291 19.3865 202.489 20.911 201.176 22.1714L201.924 23.7949C202.337 25.8476 201.984 27.8133 201.406 29.7579ZM188.277 10.0534C187.149 10.0534 186.458 10.5305 186.398 11.7279C185.754 13.6894 185.254 15.6954 184.902 17.7299C184.258 19.6913 183.757 21.6974 183.405 23.7319C182.46 27.2041 181.379 30.6492 180.984 34.1454C181.283 34.3885 181.4 34.5355 181.526 34.5565C181.77 34.578 182.015 34.578 182.259 34.5565H188.244C190.246 34.6196 192.258 34.8266 194.23 34.2234C196.624 33.6232 198.144 31.9997 199.135 29.8089C200.137 27.8583 200.775 25.8746 199.682 23.7319C199.598 22.8796 198.656 22.6095 198.383 21.8773C198.928 21.2231 199.88 21.082 200.254 20.2838C201.015 19.632 201.541 18.7472 201.75 17.7659C203.247 14.1287 201.999 11.2358 198.494 10.3084C197.102 9.95302 195.655 9.86343 194.23 10.0444L188.277 10.0534Z" fill="white"/>
<path d="M171.055 35.7119L170.276 36.6122C168.891 37.1344 167.751 36.5282 166.637 35.8079L164.593 33.107C164.258 32.5068 163.821 32.1017 162.989 32.1887C162.172 33.2421 162.118 34.5325 162.002 35.7899C161.104 37.3265 159.572 36.4682 158.345 36.7593C157.447 36.6152 156.4 36.8643 155.879 35.7779C156.007 33.7162 156.944 31.8286 157.145 29.7759C158.342 25.8266 159.338 21.8293 160.2 17.7959C160.586 15.4492 161.963 14.4198 164.312 14.6869L170.297 14.8009C172.012 15.3381 173.527 16.1604 174.472 17.7809C175.217 19.8186 174.541 21.7723 174.128 23.7409C173.293 25.9917 171.608 27.5912 169.914 29.0497C169.932 29.2246 170.002 29.3899 170.116 29.5235C170.23 29.6571 170.382 29.7525 170.552 29.7969C172.015 30.5892 172.347 31.7386 171.734 33.2721C171.462 34.0718 171.235 34.8864 171.055 35.7119ZM164.985 23.7589C164.863 24.2271 164.543 24.6592 164.758 25.1814C166.281 25.3735 166.793 25.1244 167.658 23.7799C168.367 22.9787 168.747 22.1414 167.957 21.1511C167.236 20.962 166.539 20.6649 165.782 21.1361C165.195 21.8923 165.165 22.8526 164.985 23.7589Z" fill="white"/>
<path d="M110.465 36.7412C109.609 36.6392 108.67 36.7052 108.188 35.7629C108.301 33.7102 109.124 31.8046 109.418 29.7909C110.447 25.8026 111.492 21.8203 112.273 17.7869C112.374 17.5644 112.462 17.3359 112.536 17.1027C113.081 14.969 113.356 14.7409 115.571 14.6059C115.87 14.5879 116.154 14.5308 116.444 14.4918C117.612 14.5428 118.345 15.125 118.722 16.2414C118.955 16.9346 119.32 17.5889 119.62 18.2611L121.343 22.5735C121.822 22.2943 122.206 21.8757 122.442 21.3731L125.381 17.7719C126.461 16.8266 127.015 15.3531 128.421 14.7379C129.4 14.7379 130.378 14.7019 131.354 14.7529C132.518 14.8129 132.991 15.4972 132.85 16.6315C132.799 17.0157 132.716 17.3968 132.647 17.7779C132.002 19.7392 131.502 21.7453 131.15 23.7799C130.517 25.7443 130.017 27.7496 129.654 29.7819C129.244 31.3154 128.813 32.8459 128.427 34.3855C127.978 36.1861 127.41 36.6902 125.521 36.6692C124.498 36.6692 123.426 36.9333 122.469 36.3181L122.196 35.7869C122.529 33.173 123.483 30.6852 123.992 27.9843C122.882 28.5245 122.277 29.4068 121.532 30.115C119.802 31.7626 119.258 31.7266 117.965 29.7819C117.567 28.6461 116.998 27.5783 116.277 26.6159C115.342 29.605 114.564 32.6412 113.946 35.7119C113.054 36.9873 111.668 36.5522 110.465 36.7412Z" fill="white"/>
<path d="M52.9132 23.7709L54.3497 17.8259L55.8131 11.7849C56.0944 10.9447 56.2949 10.0714 56.8545 9.34812C58.5095 7.82361 60.6073 8.21674 62.5705 8.02168L68.5558 8.00067C70.6336 8.11458 72.6153 8.91556 74.191 10.2784L75.6604 12.1601C76.2779 13.9556 76.4384 15.8774 76.1273 17.7509C75.1487 22.5075 72.6019 26.0727 68.2027 28.2274C65.8086 28.8576 63.4144 29.3258 60.8976 29.0737C59.3624 28.9206 58.689 29.6439 58.4197 31.2104C58.1773 32.6179 58.1204 34.0734 57.4231 35.3728L56.1662 36.2911C54.3287 36.2131 52.4463 36.8163 50.6567 35.946L50.4023 35.3278C50.6328 31.9967 51.8987 28.8906 52.4972 25.6466C52.6229 25.0163 52.7755 24.3951 52.9132 23.7709ZM62.373 17.7689C62.1689 18.483 62.0021 19.2072 61.8732 19.9387C61.7625 20.7849 62.1725 21.3641 63.0164 21.6072C65.7427 22.3845 68.2626 20.6349 68.5289 17.7719C68.7055 16.7546 68.49 15.8963 67.5353 15.3531C65.1562 13.9877 62.8758 15.056 62.373 17.7569V17.7689Z" fill="white"/>
<path d="M216.45 22.8826C215.31 23.6149 214.194 23.3868 212.985 23.0657C213.284 22.0243 214.05 21.8653 214.843 21.8203C215.543 21.7933 216.229 21.9343 216.45 22.8826Z" fill="white"/>
<path d="M92.4523 16.3915L93.2274 17.7959C93.787 19.8516 93.1496 21.7842 92.6109 23.7259L92.2159 24.6682C91.351 26.3998 89.702 27.4621 88.475 28.8516C88.7663 29.3124 89.2154 29.6507 89.7379 29.8029L90.7973 30.6132C90.4981 32.4888 90.1988 34.1694 89.4656 35.7479C88.6127 36.6092 87.5982 36.5282 86.5507 36.2401L85.6529 35.7539C84.1566 34.6375 83.7825 32.4528 81.8642 31.6846C80.5714 32.8309 80.9395 34.4335 80.4996 35.7629L80.2183 36.063C78.473 36.5364 76.6328 36.5291 74.8913 36.042L74.6519 35.7419C74.5068 35.1647 74.5276 34.5582 74.7118 33.9923C75.5677 30.5892 76.3906 27.177 77.2256 23.7709C77.8935 21.8146 78.4029 19.8074 78.7489 17.7689C79.2846 16.6495 79.2277 15.2001 80.5445 14.5068L86.5298 14.3238C88.7264 14.3598 90.8003 14.7709 92.4523 16.3915ZM86.0061 23.8039C86.7752 22.9036 87.3707 21.9823 86.5358 20.8209C85.8175 20.6319 85.1651 20.3378 84.387 20.7789C83.7436 21.6102 83.6688 22.6996 83.5281 23.7649C83.2977 24.149 83.0763 24.5332 83.4563 24.9413C84.9497 24.9083 85.0664 24.8603 86.0061 23.8039Z" fill="white"/>
<path d="M104.477 36.6332C102.484 36.5 100.484 36.5061 98.4915 36.6512C97.2136 36.6512 95.9358 36.6002 94.6579 36.6182C93.811 36.6182 93.1137 36.3961 92.6139 35.6849C92.4373 33.3531 93.4818 31.2494 93.8828 29.0257C94.2 27.2761 94.6729 25.5565 95.0799 23.8219L96.5433 17.7989C96.9533 16.5985 97.0131 15.1521 98.5454 14.6599L104.486 14.4618C105.659 14.4618 106.835 14.5128 108.008 14.4858C108.768 14.4708 109.472 14.5519 110.055 15.086C110.247 15.6622 110.133 16.2474 110.1 16.8296C109.828 17.0907 109.864 17.4298 109.885 17.7569C109.086 19.9086 108.658 20.1877 106.266 20.1577C105.668 20.1577 105.069 20.1937 104.492 20.2147C103.717 20.1247 102.939 19.9897 102.196 20.3078C101.733 20.863 101.724 21.5082 101.718 22.1834C102.639 22.4505 103.558 22.3605 104.48 22.2644C105.114 22.2914 105.746 22.3425 106.38 22.3394C107.374 22.3394 108.092 22.6876 108.322 23.7379C108.122 24.3981 107.915 25.0584 107.724 25.7216C107.125 27.7382 106.629 28.1224 104.483 28.2814C103.061 28.2454 101.634 28.0624 100.236 28.3054C99.795 28.978 99.614 29.7892 99.7275 30.5862C101.888 31.2734 104.276 30.064 106.422 31.2644C106.946 32.8369 106.254 34.2654 106.093 35.7119C105.68 36.2731 105.042 36.3751 104.477 36.6332Z" fill="white"/>
<path d="M193.895 26.1867V27.048C192.877 28.8666 190.902 29.4278 188.565 28.5485L188.493 27.6482C188.603 27.4253 188.691 27.1921 188.756 26.952C188.945 25.8566 189.459 25.0553 190.651 24.9923C191.842 24.9293 193.197 24.7582 193.895 26.1867Z" fill="white"/>
<path d="M194.248 15.3921C195.253 15.6322 195.849 16.1724 195.639 17.3038C195.294 17.8079 194.811 18.201 194.248 18.4351C193.257 18.2071 192.018 19.0803 191.27 17.7629C191.83 15.6322 192.015 15.4761 194.248 15.3921Z" fill="white"/>
</g>
<defs>
<clipPath id="clip0_19_77">
<rect width="239" height="45" fill="white"/>
</clipPath>
</defs>
</svg>
